<?xml version="1.0" standalone="no"?>
<svg xmlns:xlink="http://www.w3.org/1999/xlink" id="wave" style="transform:rotate(0deg); transition: 0.3s" viewBox="0 0 1440 200" version="1.1" xmlns="http://www.w3.org/2000/svg"><defs><linearGradient id="sw-gradient-0" x1="0" x2="0" y1="1" y2="0"><stop stop-color="rgba(142, 209, 252, 1)" offset="0%"/><stop stop-color="rgba(142, 209, 252, 1)" offset="100%"/></linearGradient></defs><path style="transform:translate(0, 0px); opacity:1" fill="url(#sw-gradient-0)" d="M0,20L40,23.3C80,27,160,33,240,46.7C320,60,400,80,480,103.3C560,127,640,153,720,166.7C800,180,880,180,960,150C1040,120,1120,60,1200,56.7C1280,53,1360,107,1440,136.7C1520,167,1600,173,1680,153.3C1760,133,1840,87,1920,63.3C2000,40,2080,40,2160,56.7C2240,73,2320,107,2400,120C2480,133,2560,127,2640,113.3C2720,100,2800,80,2880,83.3C2960,87,3040,113,3120,123.3C3200,133,3280,127,3360,120C3440,113,3520,107,3600,116.7C3680,127,3760,153,3840,153.3C3920,153,4000,127,4080,110C4160,93,4240,87,4320,96.7C4400,107,4480,133,4560,126.7C4640,120,4720,80,4800,63.3C4880,47,4960,53,5040,76.7C5120,100,5200,140,5280,150C5360,160,5440,140,5520,110C5600,80,5680,40,5720,20L5760,0L5760,200L5720,200C5680,200,5600,200,5520,200C5440,200,5360,200,5280,200C5200,200,5120,200,5040,200C4960,200,4880,200,4800,200C4720,200,4640,200,4560,200C4480,200,4400,200,4320,200C4240,200,4160,200,4080,200C4000,200,3920,200,3840,200C3760,200,3680,200,3600,200C3520,200,3440,200,3360,200C3280,200,3200,200,3120,200C3040,200,2960,200,2880,200C2800,200,2720,200,2640,200C2560,200,2480,200,2400,200C2320,200,2240,200,2160,200C2080,200,2000,200,1920,200C1840,200,1760,200,1680,200C1600,200,1520,200,1440,200C1360,200,1280,200,1200,200C1120,200,1040,200,960,200C880,200,800,200,720,200C640,200,560,200,480,200C400,200,320,200,240,200C160,200,80,200,40,200L0,200Z"/></svg>